<mxfile host="app.diagrams.net" agent="Mozilla/5.0 (Macintosh; Intel Mac OS X 10_15_7) AppleWebKit/537.36 (KHTML, like Gecko) Chrome/138.0.0.0 Safari/537.36" version="28.0.6">
  <diagram name="Page-1" id="sFoUcNze-BzdGA4uHaWY">
    <mxGraphModel dx="2703" dy="1840" grid="1" gridSize="10" guides="1" tooltips="1" connect="1" arrows="1" fold="1" page="1" pageScale="1" pageWidth="1200" pageHeight="760" math="0" shadow="0">
      <root>
        <mxCell id="0" />
        <mxCell id="1" parent="0" />
        <mxCell id="q2PjjPB55p4gRlyGQz1B-48" value="" style="rounded=0;whiteSpace=wrap;html=1;" parent="1" vertex="1">
          <mxGeometry width="1200" height="760" as="geometry" />
        </mxCell>
        <mxCell id="q2PjjPB55p4gRlyGQz1B-1" value="" style="rounded=0;whiteSpace=wrap;html=1;" parent="1" vertex="1">
          <mxGeometry x="40" y="80" width="380" height="290" as="geometry" />
        </mxCell>
        <mxCell id="q2PjjPB55p4gRlyGQz1B-5" value="" style="endArrow=none;html=1;rounded=0;entryX=1;entryY=0.279;entryDx=0;entryDy=0;entryPerimeter=0;exitX=0;exitY=0.897;exitDx=0;exitDy=0;exitPerimeter=0;" parent="1" target="q2PjjPB55p4gRlyGQz1B-1" edge="1">
          <mxGeometry width="50" height="50" relative="1" as="geometry">
            <mxPoint x="40" y="161.80000000000007" as="sourcePoint" />
            <mxPoint x="638.8000000000002" y="159.9999999999999" as="targetPoint" />
          </mxGeometry>
        </mxCell>
        <mxCell id="q2PjjPB55p4gRlyGQz1B-8" value="Homepage" style="text;html=1;align=center;verticalAlign=middle;whiteSpace=wrap;rounded=0;fontSize=24;" parent="1" vertex="1">
          <mxGeometry x="200" y="110" width="60" height="30" as="geometry" />
        </mxCell>
        <mxCell id="q2PjjPB55p4gRlyGQz1B-18" value="&lt;font style=&quot;font-size: 18px;&quot;&gt;Link to more special offers, country-specific pages, shopping cart&lt;/font&gt;" style="text;html=1;align=left;verticalAlign=middle;whiteSpace=wrap;rounded=0;fontSize=24;" parent="1" vertex="1">
          <mxGeometry x="65" y="250" width="330" height="30" as="geometry" />
        </mxCell>
        <mxCell id="q2PjjPB55p4gRlyGQz1B-19" value="Search menu" style="text;html=1;align=left;verticalAlign=middle;whiteSpace=wrap;rounded=0;fontSize=18;" parent="1" vertex="1">
          <mxGeometry x="65" y="310" width="330" height="30" as="geometry" />
        </mxCell>
        <mxCell id="q2PjjPB55p4gRlyGQz1B-20" value="Show specials on front page" style="text;html=1;align=left;verticalAlign=middle;whiteSpace=wrap;rounded=0;fontSize=18;" parent="1" vertex="1">
          <mxGeometry x="65" y="190" width="330" height="30" as="geometry" />
        </mxCell>
        <mxCell id="q2PjjPB55p4gRlyGQz1B-21" value="" style="rounded=0;whiteSpace=wrap;html=1;" parent="1" vertex="1">
          <mxGeometry x="40" y="400" width="320" height="160" as="geometry" />
        </mxCell>
        <mxCell id="q2PjjPB55p4gRlyGQz1B-23" value="Search results" style="text;html=1;align=center;verticalAlign=middle;whiteSpace=wrap;rounded=0;fontSize=24;" parent="1" vertex="1">
          <mxGeometry x="170" y="465" width="60" height="30" as="geometry" />
        </mxCell>
        <mxCell id="q2PjjPB55p4gRlyGQz1B-28" value="" style="rounded=0;whiteSpace=wrap;html=1;" parent="1" vertex="1">
          <mxGeometry x="480" y="40" width="320" height="160" as="geometry" />
        </mxCell>
        <mxCell id="q2PjjPB55p4gRlyGQz1B-29" value="Country info" style="text;html=1;align=center;verticalAlign=middle;whiteSpace=wrap;rounded=0;fontSize=24;" parent="1" vertex="1">
          <mxGeometry x="600" y="105" width="60" height="30" as="geometry" />
        </mxCell>
        <mxCell id="q2PjjPB55p4gRlyGQz1B-30" value="" style="rounded=0;whiteSpace=wrap;html=1;" parent="1" vertex="1">
          <mxGeometry x="840" y="40" width="320" height="160" as="geometry" />
        </mxCell>
        <mxCell id="q2PjjPB55p4gRlyGQz1B-31" value="Special offers" style="text;html=1;align=center;verticalAlign=middle;whiteSpace=wrap;rounded=0;fontSize=24;" parent="1" vertex="1">
          <mxGeometry x="980" y="105" width="60" height="30" as="geometry" />
        </mxCell>
        <mxCell id="q2PjjPB55p4gRlyGQz1B-32" value="" style="endArrow=none;html=1;rounded=0;exitX=1.008;exitY=0.548;exitDx=0;exitDy=0;exitPerimeter=0;strokeWidth=2;" parent="1" source="q2PjjPB55p4gRlyGQz1B-1" edge="1">
          <mxGeometry width="50" height="50" relative="1" as="geometry">
            <mxPoint x="510" y="320" as="sourcePoint" />
            <mxPoint x="1000" y="239" as="targetPoint" />
          </mxGeometry>
        </mxCell>
        <mxCell id="q2PjjPB55p4gRlyGQz1B-37" value="" style="endArrow=none;html=1;rounded=0;exitX=1.008;exitY=0.548;exitDx=0;exitDy=0;exitPerimeter=0;strokeWidth=2;" parent="1" edge="1">
          <mxGeometry width="50" height="50" relative="1" as="geometry">
            <mxPoint x="360" y="479.5" as="sourcePoint" />
            <mxPoint x="1000" y="480" as="targetPoint" />
          </mxGeometry>
        </mxCell>
        <mxCell id="q2PjjPB55p4gRlyGQz1B-40" value="" style="rounded=0;whiteSpace=wrap;html=1;" parent="1" vertex="1">
          <mxGeometry x="840" y="560" width="320" height="160" as="geometry" />
        </mxCell>
        <mxCell id="q2PjjPB55p4gRlyGQz1B-41" value="Holiday purchase flow" style="text;html=1;align=center;verticalAlign=middle;whiteSpace=wrap;rounded=0;fontSize=24;" parent="1" vertex="1">
          <mxGeometry x="920" y="625" width="180" height="30" as="geometry" />
        </mxCell>
        <mxCell id="q2PjjPB55p4gRlyGQz1B-42" value="" style="endArrow=block;html=1;rounded=0;exitX=0.75;exitY=1;exitDx=0;exitDy=0;entryX=0.75;entryY=0;entryDx=0;entryDy=0;endFill=1;strokeWidth=2;" parent="1" source="q2PjjPB55p4gRlyGQz1B-30" target="q2PjjPB55p4gRlyGQz1B-40" edge="1">
          <mxGeometry width="50" height="50" relative="1" as="geometry">
            <mxPoint x="600" y="460" as="sourcePoint" />
            <mxPoint x="650" y="410" as="targetPoint" />
          </mxGeometry>
        </mxCell>
        <mxCell id="q2PjjPB55p4gRlyGQz1B-43" value="" style="endArrow=classic;html=1;rounded=0;entryX=0.5;entryY=1;entryDx=0;entryDy=0;strokeWidth=2;" parent="1" target="q2PjjPB55p4gRlyGQz1B-28" edge="1">
          <mxGeometry width="50" height="50" relative="1" as="geometry">
            <mxPoint x="640" y="480" as="sourcePoint" />
            <mxPoint x="650" y="410" as="targetPoint" />
          </mxGeometry>
        </mxCell>
        <mxCell id="q2PjjPB55p4gRlyGQz1B-44" value="" style="endArrow=classic;html=1;rounded=0;entryX=0.5;entryY=1;entryDx=0;entryDy=0;strokeWidth=2;" parent="1" edge="1">
          <mxGeometry width="50" height="50" relative="1" as="geometry">
            <mxPoint x="999.5" y="480" as="sourcePoint" />
            <mxPoint x="999.5" y="200" as="targetPoint" />
          </mxGeometry>
        </mxCell>
        <mxCell id="q2PjjPB55p4gRlyGQz1B-45" value="" style="endArrow=classic;html=1;rounded=0;entryX=0;entryY=0.5;entryDx=0;entryDy=0;strokeWidth=2;" parent="1" target="q2PjjPB55p4gRlyGQz1B-40" edge="1">
          <mxGeometry width="50" height="50" relative="1" as="geometry">
            <mxPoint x="200" y="640" as="sourcePoint" />
            <mxPoint x="650" y="410" as="targetPoint" />
          </mxGeometry>
        </mxCell>
        <mxCell id="q2PjjPB55p4gRlyGQz1B-46" value="" style="endArrow=none;html=1;rounded=0;entryX=0.5;entryY=1;entryDx=0;entryDy=0;strokeWidth=2;" parent="1" target="q2PjjPB55p4gRlyGQz1B-21" edge="1">
          <mxGeometry width="50" height="50" relative="1" as="geometry">
            <mxPoint x="200" y="640" as="sourcePoint" />
            <mxPoint x="650" y="410" as="targetPoint" />
          </mxGeometry>
        </mxCell>
        <mxCell id="q2PjjPB55p4gRlyGQz1B-47" value="Shopping cart, enter address, pay, etc." style="text;html=1;align=center;verticalAlign=middle;whiteSpace=wrap;rounded=0;" parent="1" vertex="1">
          <mxGeometry x="900" y="670" width="220" height="30" as="geometry" />
        </mxCell>
        <mxCell id="q2PjjPB55p4gRlyGQz1B-49" value="" style="endArrow=classic;html=1;rounded=0;strokeWidth=2;" parent="1" edge="1">
          <mxGeometry width="50" height="50" relative="1" as="geometry">
            <mxPoint x="200" y="370" as="sourcePoint" />
            <mxPoint x="200" y="400" as="targetPoint" />
          </mxGeometry>
        </mxCell>
      </root>
    </mxGraphModel>
  </diagram>
</mxfile>
